# xmcd
#
# Track frame offsets: 
#        150
#        13279
#        22851
#        33927
#        44993
#        57098
#        69206
#        84960
#        96147
#        108398
#        118338
#        129357
#        139484
#        155818
#        170864
#        185319
#        201033
#        215347
#        226750
#        237217
#
# Disc length: 3312 seconds
#
# Revision: 1
# Processed by: cddbd v1.5.2PL0 Copyright (c) Steve Scherf et al.
# Submitted via: ExactAudioCopyFreeDBPlugin 1.0
#
DISCID=160cee14
DTITLE=Various Artist - Cooler Than Ice:  Arctic Records and the Rise
DTITLE=of Philly Soul [box set]
DYEAR=2012
DGENRE=Soul
TTITLE0=Light Lunch and The Freeloaders - How Can I Win Your Love
TTITLE1=Light Lunch and The Freeloaders - How Can I Win Your Love (instr
TTITLE1=umental)
TTITLE2=Kenny Gamble and The Romeos - Ain't it Baby
TTITLE3=Kenny Gamble and The Romeos - Ain't it Baby (instrumental)
TTITLE4=The Volcanos - (It's Against) The Laws of Love
TTITLE5=The Volcanos - (It's Against) The Laws of Love (instrumental)
TTITLE6=Barbara Mason - Is it Me?
TTITLE7=Barbara Mason - Don't Ever Want to Lose Your Love
TTITLE8=Mike and Ike - Ya Ya
TTITLE9=Mike and Ike - Sax on the Track (I'd Rather Be Lonely)
TTITLE10=Honey and The Bees - I'm Confessin'
TTITLE11=Honey and The Bees - One Time is Forever
TTITLE12=The Brockington Chorale Ensemble - How I Got Over (Part 1)
TTITLE13=The Brockington Chorale Ensemble - How I Got Over (Part 2)
TTITLE14=Barbara Mason - I Need Love
TTITLE15=Barbara Mason - Bobby is My Baby
TTITLE16=Jack and Jill - Take Me for What I Am
TTITLE17=Jack and Jill - There You Go Again
TTITLE18=Kenny Rossi - Turn on Your Love Light
TTITLE19=Kenny Rossi - Don't Lose This Love
EXTD=
EXTT0=
EXTT1=
EXTT2=
EXTT3=
EXTT4=
EXTT5=
EXTT6=
EXTT7=
EXTT8=
EXTT9=
EXTT10=
EXTT11=
EXTT12=
EXTT13=
EXTT14=
EXTT15=
EXTT16=
EXTT17=
EXTT18=
EXTT19=
PLAYORDER=
